<?xml version="1.0" encoding="UTF-8" standalone="no"?><svg xmlns="http://www.w3.org/2000/svg" xmlns:xlink="http://www.w3.org/1999/xlink" contentScriptType="application/ecmascript" contentStyleType="text/css" height="348px" preserveAspectRatio="none" style="width:433px;height:348px;background:#0F172A;" version="1.1" viewBox="0 0 433 348" width="433px" zoomAndPan="magnify"><defs><filter height="300%" id="f18omri1igp7wk" width="300%" x="-1" y="-1"><feGaussianBlur result="blurOut" stdDeviation="2.0"/><feColorMatrix in="blurOut" result="blurOut2" type="matrix" values="0 0 0 0 0 0 0 0 0 0 0 0 0 0 0 0 0 0 .4 0"/><feOffset dx="4.0" dy="4.0" in="blurOut2" result="blurOut3"/><feBlend in="SourceGraphic" in2="blurOut3" mode="normal"/></filter></defs><g><!--MD5=[a5f6d7e9f88b7365548164145cca9219]
cluster env--><rect fill="#1E293B" filter="url(#f18omri1igp7wk)" height="217" rx="2" ry="2" style="stroke: #475569; stroke-width: 1.5;" width="400" x="22" y="24"/><text fill="#E2E8F0" font-family="monospace" font-size="14" font-weight="bold" lengthAdjust="spacingAndGlyphs" textLength="141" x="151.5" y="38.9951">Your Environment</text><!--MD5=[c251b62818238b6f79269adc5bf7d1e2]
entity cli--><rect fill="#1E293B" filter="url(#f18omri1igp7wk)" height="52.5938" rx="2" ry="2" style="stroke: #475569; stroke-width: 1.5;" width="87" x="38.5" y="59"/><text fill="#E2E8F0" font-family="monospace" font-size="14" lengthAdjust="spacingAndGlyphs" textLength="67" x="48.5" y="81.9951">InfraIQ CLI</text><text fill="#E2E8F0" font-family="monospace" font-size="14" lengthAdjust="spacingAndGlyphs" textLength="41" x="48.5" y="98.292">(local)</text><!--MD5=[3a4d72efb1b53e1acbdd1189cccbc328]
entity cloud--><rect fill="#1E293B" filter="url(#f18omri1igp7wk)" height="52.5938" rx="2" ry="2" style="stroke: #475569; stroke-width: 1.5;" width="123" x="160.5" y="59"/><text fill="#E2E8F0" font-family="monospace" font-size="14" lengthAdjust="spacingAndGlyphs" textLength="76" x="170.5" y="81.9951">Your Cloud</text><text fill="#E2E8F0" font-family="monospace" font-size="14" lengthAdjust="spacingAndGlyphs" textLength="103" x="170.5" y="98.292">(AWS/GCP/etc)</text><!--MD5=[00f9e30d6ead67871b5f4dcdb52564e0]
entity tf--><rect fill="#1E293B" filter="url(#f18omri1igp7wk)" height="52.5938" rx="2" ry="2" style="stroke: #475569; stroke-width: 1.5;" width="87" x="318.5" y="59"/><text fill="#E2E8F0" font-family="monospace" font-size="14" lengthAdjust="spacingAndGlyphs" textLength="67" x="328.5" y="81.9951">Terraform</text><text fill="#E2E8F0" font-family="monospace" font-size="14" lengthAdjust="spacingAndGlyphs" textLength="41" x="328.5" y="98.292">(local)</text><!--MD5=[7ea5c290f9924aa17425da11969903cd]
entity telem--><rect fill="#1E293B" filter="url(#f18omri1igp7wk)" height="52.5938" rx="2" ry="2" style="stroke: #475569; stroke-width: 1.5;" width="102" x="38" y="172"/><text fill="#E2E8F0" font-family="monospace" font-size="14" lengthAdjust="spacingAndGlyphs" textLength="82" x="48" y="194.9951">Anonymous</text><text fill="#E2E8F0" font-family="monospace" font-size="14" lengthAdjust="spacingAndGlyphs" textLength="69" x="48" y="211.292">Telemetry</text><path d="M175,185.5 L175,194.5 L140.23,198.5 L175,202.5 L175,211.7969 A0,0 0 0 0 175,211.7969 L319,211.7969 A0,0 0 0 0 319,211.7969 L319,195.5 L309,185.5 L175,185.5 A0,0 0 0 0 175,185.5 " fill="#1E293B" filter="url(#f18omri1igp7wk)" style="stroke: #475569; stroke-width: 1.0;"/><path d="M309,185.5 L309,195.5 L319,195.5 L309,185.5 " fill="#1E293B" style="stroke: #475569; stroke-width: 1.0;"/><text fill="#94A3B8" font-family="monospace" font-size="14" lengthAdjust="spacingAndGlyphs" textLength="123" x="181" y="203.4951">(opt-out available)</text><!--MD5=[f791e0571e8483c2d51a766d1482f50a]
entity autonops--><rect fill="#1E293B" filter="url(#f18omri1igp7wk)" height="52.5938" rx="2" ry="2" style="stroke: #475569; stroke-width: 1.5;" width="127" x="25.5" y="285"/><text fill="#E2E8F0" font-family="monospace" font-size="14" lengthAdjust="spacingAndGlyphs" textLength="67" x="35.5" y="307.9951">Autonops</text><text fill="#E2E8F0" font-family="monospace" font-size="14" lengthAdjust="spacingAndGlyphs" textLength="107" x="35.5" y="324.292">(telemetry only)</text><!--MD5=[8b774b8a1406357d0dc2b9106b3063e5]
link cli to cloud--><path d="M125.75,85.5 C135.57,85.5 145.39,85.5 155.21,85.5 " fill="none" id="cli-&gt;cloud" style="stroke: #E2E8F0; stroke-width: 1.0;"/><polygon fill="#E2E8F0" points="160.34,85.5,151.34,81.5,155.34,85.5,151.34,89.5,160.34,85.5" style="stroke: #E2E8F0; stroke-width: 1.0;"/><!--MD5=[f0ad0ab6af9483ef91bcebf3789e8264]
link cloud to tf--><path d="M283.52,85.5 C293.44,85.5 303.36,85.5 313.28,85.5 " fill="none" id="cloud-&gt;tf" style="stroke: #E2E8F0; stroke-width: 1.0;"/><polygon fill="#E2E8F0" points="318.47,85.5,309.47,81.5,313.47,85.5,309.47,89.5,318.47,85.5" style="stroke: #E2E8F0; stroke-width: 1.0;"/><!--MD5=[2016c7dace6bb3e582fd410afccf1c5e]
link cli to telem--><path d="M83.62,112.24 C84.65,128.5 85.98,149.58 87.06,166.71 " fill="none" id="cli-&gt;telem" style="stroke: #E2E8F0; stroke-width: 1.0;"/><polygon fill="#E2E8F0" points="87.39,171.89,90.7912,162.6471,87.0621,166.9008,82.8085,163.1717,87.39,171.89" style="stroke: #E2E8F0; stroke-width: 1.0;"/><!--MD5=[93a2a1fea883ffb07a9df26f26e8364a]
link telem to autonops--><path d="M89,225.24 C89,241.5 89,262.58 89,279.71 " fill="none" id="telem-&gt;autonops" style="stroke: #E2E8F0; stroke-width: 1.0;"/><polygon fill="#E2E8F0" points="89,284.89,93.0257,275.9015,89.0143,279.89,85.0257,275.8786,89,284.89" style="stroke: #E2E8F0; stroke-width: 1.0;"/><!--MD5=[0d3b4b7438be9b9cf4aaec00befccf40]
@startuml infraiq-architecture

skinparam backgroundColor #0f172a
skinparam defaultFontColor #e2e8f0
skinparam defaultFontName monospace
skinparam defaultFontSize 14

skinparam rectangle {
  BackgroundColor #1e293b
  BorderColor #475569
  FontColor #e2e8f0
  RoundCorner 4
}

skinparam arrow {
  Color #e2e8f0
}

skinparam note {
  BackgroundColor #1e293b
  BorderColor #475569
  FontColor #94a3b8
}

rectangle "Your Environment" as env #1e293b {
  rectangle "InfraIQ CLI\n(local)" as cli #1e293b
  rectangle "Your Cloud\n(AWS/GCP/etc)" as cloud #1e293b  
  rectangle "Terraform\n(local)" as tf #1e293b
  rectangle "Anonymous\nTelemetry" as telem #1e293b
  
  note right of telem #1e293b : (opt-out available)
}

rectangle "Autonops\n(telemetry only)" as autonops #1e293b

cli -right-> cloud
cloud -right-> tf

cli -down-> telem
telem -down-> autonops

@enduml

PlantUML version 1.2020.02(Sun Mar 01 10:22:07 UTC 2020)
(GPL source distribution)
Java Runtime: OpenJDK Runtime Environment
JVM: OpenJDK 64-Bit Server VM
Java Version: 21.0.9+10-Ubuntu-124.04
Operating System: Linux
Default Encoding: UTF-8
Language: en
Country: US
--></g></svg>